<?xml version="1.0" encoding="UTF-8" standalone="no"?>
<!-- Created with Inkscape (http://www.inkscape.org/) -->

<svg
   xmlns:dc="http://purl.org/dc/elements/1.1/"
   xmlns:cc="http://creativecommons.org/ns#"
   xmlns:rdf="http://www.w3.org/1999/02/22-rdf-syntax-ns#"
   xmlns:svg="http://www.w3.org/2000/svg"
   xmlns="http://www.w3.org/2000/svg"
   version="1.1"
   width="660"
   height="688.32227"
   id="svg5405">
  <defs
     id="defs5407">
    <clipPath
       id="clipPath2088">
      <path
         d="m 34.016,34.583 41.953,0 0,43.37 -41.953,0 0,-43.37 z"
         id="path2090" />
    </clipPath>
  </defs>
  <metadata
     id="metadata5411">
    <rdf:RDF>
      <cc:Work
         rdf:about="">
        <dc:format>image/svg+xml</dc:format>
        <dc:type
           rdf:resource="http://purl.org/dc/dcmitype/StillImage" />
        <dc:title></dc:title>
      </cc:Work>
    </rdf:RDF>
  </metadata>
  <g
     transform="translate(-199.88,-18.23253)"
     id="layer1">
    <g
       id="g5616">
      <path
         d="m 271.93135,169.76407 c -35.69417,0 -58.31431,-9.13107 -58.10679,-42.54247 l 30.29854,0 c 0.20752,12.0364 12.03641,15.14927 26.97815,15.14927 17.01699,0 27.80825,-2.90534 27.80825,-15.14927 0,-15.14927 -10.37621,-13.90413 -28.43082,-14.94175 -28.01577,-1.86772 -55.82402,-2.69781 -55.82402,-41.0898 0,-33.826453 20.33737,-42.95752 56.03154,-42.95752 35.69418,0 57.89927,9.75364 57.89927,42.542472 l -29.88349,0 c 0,-14.111649 -15.14927,-15.771843 -28.43082,-15.771843 -21.99757,0 -25.31796,5.603154 -25.31796,14.526697 0,13.489077 10.79126,13.074028 26.97815,13.904125 28.84587,1.45267 57.27669,1.245146 57.27669,41.504849 0,30.71359 -19.50728,44.82524 -57.27669,44.82524"
         id="path2094"
         style="fill:#000000;fill-opacity:1;fill-rule:nonzero;stroke:none" />
      <path
         d="m 413.4597,56.661761 0,111.440519 -30.29854,0 0,-111.440519 -41.0898,0 0,-26.978153 112.47814,0 0,26.978153 -41.0898,0 z"
         id="path2098"
         style="fill:#000000;fill-opacity:1;fill-rule:nonzero;stroke:none" />
      <path
         d="m 508.71333,67.037974 -15.14927,43.165046 30.29854,0 -15.14927,-43.165046 z m 35.69417,101.064306 -11.20631,-31.54368 -48.97572,0 -11.20631,31.54368 -31.95874,0 52.71116,-138.418671 30.50607,0 52.29611,138.418671 -32.16626,0 z"
         id="path2102"
         style="fill:#000000;fill-opacity:1;fill-rule:nonzero;stroke:none" />
      <path
         d="m 644.64172,56.661761 -22.41262,0 0,84.462369 22.41262,0 c 23.86529,0 31.33616,-1.24514 31.33616,-42.127422 0,-40.882277 -7.47087,-42.334947 -31.33616,-42.334947 m 52.71116,92.763339 c -9.96116,14.73422 -24.90291,18.67718 -50.63592,18.67718 l -54.7864,0 0,-138.418672 54.57888,0 c 25.73301,0 40.67475,4.150485 50.63592,18.884707 7.26334,10.791261 9.13106,23.242716 9.13106,50.428393 0,27.185682 -1.66019,39.637132 -8.92354,50.428392"
         id="path2106"
         style="fill:#000000;fill-opacity:1;fill-rule:nonzero;stroke:none" />
      <path
         d="m 787.83026,56.661761 0,111.440519 -30.29854,0 0,-111.440519 -41.0898,0 0,-26.978153 112.47814,0 0,26.978153 -41.0898,0 z"
         id="path2110"
         style="fill:#000000;fill-opacity:1;fill-rule:nonzero;stroke:none" />
      <path
         d="m 832.24045,169.76407 c -11.41383,0 -17.63956,-7.05582 -17.63956,-17.63956 0,-11.20631 7.05582,-17.22451 17.63956,-17.22451 10.58374,0 17.63956,6.0182 17.63956,17.22451 0,10.58374 -6.22573,17.63956 -17.63956,17.63956"
         id="path2114"
         style="fill:#000000;fill-opacity:1;fill-rule:nonzero;stroke:none" />
      <path
         d="m 320.49203,331.66332 c -9.13107,9.13107 -24.28034,13.6966 -45.65534,13.6966 -58.10679,0 -58.72936,-32.16626 -58.72936,-70.97329 0,-38.80704 0.41505,-70.55825 58.52184,-70.55825 19.09223,0 35.69417,3.11286 46.27791,13.6966 9.33859,9.33859 9.96116,22.62014 9.96116,28.84587 l -30.50606,0 c -0.20753,-10.58373 -4.77306,-15.35679 -25.31796,-15.35679 -24.28034,0 -28.63835,8.71602 -28.63835,43.58009 0,34.86408 4.35801,43.58009 28.63835,43.58009 20.5449,0 25.11043,-4.77305 25.31796,-15.35679 l 30.50606,0 c 0,12.45145 -3.11286,21.375 -10.37621,28.84587"
         id="path2118"
         style="fill:#000000;fill-opacity:1;fill-rule:nonzero;stroke:none" />
      <path
         d="m 356.18141,205.28903 30.29854,0 0,138.41868 -30.29854,0 0,-138.41868 z"
         id="path2120"
         style="fill:#000000;fill-opacity:1;fill-rule:nonzero;stroke:none" />
      <path
         d="m 474.67936,232.25921 0,111.44052 -30.29854,0 0,-111.44052 -41.0898,0 0,-26.97815 112.47814,0 0,26.97815 -41.0898,0 z"
         id="path2124"
         style="fill:#000000;fill-opacity:1;fill-rule:nonzero;stroke:none" />
      <path
         d="m 600.8541,285.17789 0,58.52184 -30.29854,0 0,-58.52184 -51.88106,-79.89684 34.44902,0 33.20388,52.50364 33.20388,-52.50364 33.41141,0 -52.08859,79.89684 z"
         id="path2128"
         style="fill:#000000;fill-opacity:1;fill-rule:nonzero;stroke:none" />
      <path
         d="m 650.4524,345.35992 c -11.41383,0 -17.63956,-7.05582 -17.63956,-17.63956 0,-11.20631 7.05582,-17.22451 17.63956,-17.22451 10.58374,0 17.63956,6.0182 17.63956,17.22451 0,10.58374 -6.22573,17.63956 -17.63956,17.63956"
         id="path2132"
         style="fill:#000000;fill-opacity:1;fill-rule:nonzero;stroke:none" />
      <path
         d="m 290.19189,519.29717 -30.29854,0 -50.01335,-138.41868 32.99636,0 33.20388,98.57402 33.61893,-98.57402 30.92111,0 -50.42839,138.41868 z"
         id="path2136"
         style="fill:#000000;fill-opacity:1;fill-rule:nonzero;stroke:none" />
      <path
         d="m 355.76636,380.88648 30.29854,0 0,138.41867 -30.29854,0 0,-138.41867 z"
         id="path2138"
         style="fill:#000000;fill-opacity:1;fill-rule:nonzero;stroke:none" />
      <path
         d="m 415.1199,519.29717 0,-138.41868 30.29854,0 0,111.44053 67.03033,0 0,26.97815 -97.32887,0 z"
         id="path2142"
         style="fill:#000000;fill-opacity:1;fill-rule:nonzero;stroke:none" />
      <path
         d="m 527.80237,519.29717 0,-138.41868 30.29854,0 0,111.44053 67.03033,0 0,26.97815 -97.32887,0 z"
         id="path2146"
         style="fill:#000000;fill-opacity:1;fill-rule:nonzero;stroke:none" />
      <path
         d="m 640.48804,519.29717 0,-138.41868 98.57402,0 0,26.97816 -68.27548,0 0,27.18567 66.20024,0 0,26.97816 -66.20024,0 0,30.29854 68.27548,0 0,26.97815 -98.57402,0 z"
         id="path2150"
         style="fill:#000000;fill-opacity:1;fill-rule:nonzero;stroke:none" />
      <path
         d="m 780.36258,520.95737 c -11.41383,0 -17.63956,-7.05582 -17.63956,-17.63956 0,-11.20631 7.05582,-17.22451 17.63956,-17.22451 10.58374,0 17.63956,6.0182 17.63956,17.22451 0,10.58374 -6.22573,17.63956 -17.63956,17.63956"
         id="path2154"
         style="fill:#000000;fill-opacity:1;fill-rule:nonzero;stroke:none" />
      <path
         d="m 277.32539,637.4104 -24.07281,0 0,30.50607 30.29854,0 c 14.11165,0 19.7148,-1.45267 19.7148,-14.94175 0,-16.39442 -6.22573,-15.56432 -25.94053,-15.56432 m -0.8301,-54.16383 -23.24271,0 0,27.60073 26.35558,0 c 14.11165,0 22.82766,-0.20753 22.82766,-13.90413 0,-14.31917 -9.96116,-13.6966 -25.94053,-13.6966 m 47.73058,100.44174 c -12.03641,12.0364 -29.88349,11.20631 -40.67475,11.20631 l -59.76699,0 0,-138.41868 52.29611,0 c 25.31796,0 56.4466,-1.86772 56.4466,34.86408 0,16.18689 -3.52791,27.60072 -14.31917,32.16626 12.24393,5.60315 15.35679,17.22451 15.35679,30.29854 0,11.41383 -2.07524,22.62014 -9.33859,29.88349"
         id="path2158"
         style="fill:#cd071a;fill-opacity:1;fill-rule:nonzero;stroke:none" />
      <path
         d="m 416.16071,582.41647 c -24.28034,0 -28.2233,7.47087 -28.2233,43.37257 0,35.90169 3.94296,43.37257 28.2233,43.37257 24.28034,0 28.43082,-7.47088 28.43082,-43.37257 0,-35.9017 -4.15048,-43.37257 -28.43082,-43.37257 m 0.20752,114.13834 c -58.10679,0 -58.72936,-32.16626 -58.72936,-70.9733 0,-38.80703 0.41505,-70.55824 58.52184,-70.55824 58.10679,0 58.72936,31.33616 58.72936,70.35072 0,42.12742 -2.69781,71.18082 -58.52184,71.18082"
         id="path2162"
         style="fill:#cd071a;fill-opacity:1;fill-rule:nonzero;stroke:none" />
      <path
         d="m 580.51672,694.89462 -51.25849,-90.27305 0,90.27305 -27.80825,0 0,-138.41868 30.29854,0 51.67354,90.06553 0,-90.06553 27.80825,0 0,138.41868 -30.71359,0 z"
         id="path2166"
         style="fill:#cd071a;fill-opacity:1;fill-rule:nonzero;stroke:none" />
      <path
         d="m 719.35045,694.89462 -51.25849,-90.27305 0,90.27305 -27.80825,0 0,-138.41868 30.29854,0 51.67354,90.06553 0,-90.06553 27.80825,0 0,138.41868 -30.71359,0 z"
         id="path2170"
         style="fill:#cd071a;fill-opacity:1;fill-rule:nonzero;stroke:none" />
      <path
         d="m 790.52807,696.55481 c -11.41383,0 -17.63956,-7.05582 -17.63956,-17.63956 0,-11.20631 7.05582,-17.22451 17.63956,-17.22451 10.58374,0 17.63956,6.0182 17.63956,17.22451 0,10.58374 -6.22573,17.63956 -17.63956,17.63956"
         id="path2174"
         style="fill:#cd071a;fill-opacity:1;fill-rule:nonzero;stroke:none" />
    </g>
  </g>
</svg>
