<?xml version="1.0" encoding="UTF-8" standalone="no"?>
<!-- Created with Inkscape (http://www.inkscape.org/) -->

<svg
   xmlns:dc="http://purl.org/dc/elements/1.1/"
   xmlns:cc="http://creativecommons.org/ns#"
   xmlns:rdf="http://www.w3.org/1999/02/22-rdf-syntax-ns#"
   xmlns:svg="http://www.w3.org/2000/svg"
   xmlns="http://www.w3.org/2000/svg"
   version="1.1"
   width="892.91339"
   height="237.40157"
   id="svg3111">
  <defs
     id="defs3113">
    <clipPath
       id="clipPath3011">
      <path
         d="m 0,0 595.276,0 0,841.89 L 0,841.89 0,0 z"
         id="path3013" />
    </clipPath>
  </defs>
  <metadata
     id="metadata3116">
    <rdf:RDF>
      <cc:Work
         rdf:about="">
        <dc:format>image/svg+xml</dc:format>
        <dc:type
           rdf:resource="http://purl.org/dc/dcmitype/StillImage" />
        <dc:title></dc:title>
      </cc:Work>
    </rdf:RDF>
  </metadata>
  <g
     transform="translate(63.386985,-421.60308)"
     id="layer1">
    <g
       transform="matrix(6.8749856,0,0,-6.8749856,-3036.6492,886.35756)"
       id="g3007">
      <g
         clip-path="url(#clipPath3011)"
         id="g3009">
        <g
           transform="translate(435.2178,67.0779)"
           id="g3015">
          <path
             d="m 0,0 c 0,0 -2.227,0 -2.227,-2.226 l 0,-29.032 c 0,0 0,-2.227 2.227,-2.227 l 18.594,0 c 0,0 2.227,0 2.227,2.227 l 0,29.032 c 0,0 0,2.226 -2.227,2.226 L 0,0 z"
             id="path3017"
             style="fill:#079ae1;fill-opacity:1;fill-rule:nonzero;stroke:none" />
        </g>
        <g
           transform="translate(452.827,45.404)"
           id="g3019">
          <path
             d="m 0,0 c -0.218,-5.74 -4.616,-8.292 -7.638,-8.242 -2.047,0 -3.793,0.84 -3.709,0.957 4.18,0.502 4.096,3.189 4.096,3.189 l 0,8.343 2.517,0 -0.705,1.309 -1.88,0 0,8.04 c 0,0 0.319,2.368 3.106,2.233 3.995,-0.621 4.347,-5.321 3.944,-6.529 l -4.465,0 C -3.525,6.849 0.034,4.533 0,0 m -9.149,-3.608 0,8.04 -1.947,0 -0.654,1.326 2.551,0 0,7.923 c 0,0 -0.1,2.87 3.911,3.508 -2.081,1.242 -5.908,1.544 -9.148,-2.45 -1.494,-1.864 -1.746,-4.281 -1.729,-4.768 0.353,-4.448 1.525,-4.733 4.413,-9.065 0,-0.084 0.002,-0.185 0.002,-0.185 l -4.515,0 c 0,0 -0.151,-1.309 -0.051,-2.131 0.051,-1.511 1.259,-4.364 4.415,-4.448 2.602,0 2.752,2.25 2.752,2.25"
             id="path3021"
             style="fill:#ffffff;fill-opacity:1;fill-rule:nonzero;stroke:none" />
        </g>
        <g
           transform="translate(476.3356,51.3105)"
           id="g3023">
          <path
             d="m 0,0 c 0,-5.491 -4.042,-6.138 -7.434,-6.138 -5.517,0 -6.549,3.23 -6.313,6.901 l 4.454,0 c 0,-2.026 0.088,-3.73 2.537,-3.73 1.505,0 2.242,0.97 2.242,2.409 0,3.817 -8.968,4.052 -8.968,10.365 0,3.318 1.593,5.96 7.021,5.96 4.337,0 6.49,-1.938 6.195,-6.371 l -4.336,0 c 0,1.585 -0.266,3.2 -2.065,3.2 -1.446,0 -2.301,-0.793 -2.301,-2.261 C -8.968,6.313 0,6.665 0,0 m 18.196,-5.788 -4.693,0 -1.18,4.7 -7.289,-4.7 -4.397,0 5.901,21.205 5.873,0 5.785,-21.205 z M 11.2,2.947 9.224,11.336 9.165,11.336 6.626,0.121 11.2,2.947 z m 20.293,12.47 0,-14.684 -0.059,0 -5.655,14.684 -6.008,0 0,-21.205 4.152,0 0,15.508 0.061,0 5.8,-15.508 5.861,0 0,21.205 -4.152,0 z m 18.759,0 0,-14.684 -0.059,0 -5.656,14.684 -6.006,0 0,-21.205 4.151,0 0,15.508 0.059,0 5.802,-15.508 5.861,0 0,21.205 -4.152,0 z m 11.501,-17.945 0,6.198 6.621,0 0,3.26 -6.621,0 0,5.227 7.183,0 0,3.26 -11.647,0 0,-21.205 11.883,0 0,3.26 -7.419,0 z m 23.75,-3.26 -4.382,0 c -0.593,1.293 -0.474,2.733 -0.474,4.113 0,2.525 0.236,4.669 -3.198,4.669 l -1.155,0 0,-8.782 -4.471,0 0,21.205 8.261,0 c 3.051,0 5.006,-1.938 5.006,-5.55 0,-2.702 -1.067,-4.729 -3.969,-5.199 l 0,-0.059 c 0.977,-0.117 3.88,-0.352 3.88,-4.17 0,-1.351 0.089,-5.344 0.502,-6.227 M 80.558,9.367 c 0,2.027 -0.859,2.79 -2.279,2.79 l -1.985,0 0,-5.903 1.985,0 c 1.777,0 2.279,1.763 2.279,3.113"
             id="path3025"
             style="fill:#231f20;fill-opacity:1;fill-rule:nonzero;stroke:none" />
        </g>
        <g
           transform="translate(558.6445,35.2816)"
           id="g3027">
          <path
             d="m 0,0 c -0.015,-0.506 -0.015,-1.703 1.549,-1.689 0.876,0 1.645,0.361 1.645,1.476 0,1.683 -2.379,1.513 -2.379,2.681 0,0.574 0.41,0.78 0.815,0.78 0.639,0 0.822,-0.382 0.815,-0.963 l 0.705,0 c 0.044,1.08 -0.499,1.548 -1.469,1.548 -0.887,0 -1.557,-0.497 -1.557,-1.438 0,-1.594 2.381,-1.463 2.381,-2.636 0,-0.633 -0.412,-0.86 -0.95,-0.86 -0.433,0 -0.887,0.227 -0.887,0.947 L 0.668,0 0,0 z m -1.467,3.725 0,-4.54 -0.014,0 -2.065,4.54 -0.953,0 0,-5.303 0.6,0 0,4.596 0.016,0 2.093,-4.596 0.924,0 0,5.303 -0.601,0 z m -5.658,-4.847 c -0.638,0 -0.977,0.293 -0.977,1.454 l 0,1.792 c 0,1.109 0.765,1.145 0.977,1.145 0.214,0 0.978,-0.036 0.978,-1.145 l 0,-1.792 c 0,-1.161 -0.337,-1.454 -0.978,-1.454 m 0,-0.567 c 1.125,0 1.669,0.581 1.669,2.049 l 0,1.741 c 0,1.058 -0.544,1.732 -1.669,1.732 -1.123,0 -1.666,-0.674 -1.666,-1.732 l 0,-1.741 c 0,-1.468 0.543,-2.049 1.666,-2.049 m -2.641,5.414 -0.675,0 0,-5.304 0.675,0 0,5.304 z m -5,0 0,-0.588 1.396,0 0,-4.715 0.675,0 0,4.715 1.395,0 0,0.588 -3.466,0 z m -4.14,-3.365 c 0,-1.468 0.543,-2.049 1.667,-2.049 1.124,0 1.665,0.581 1.665,2.049 l 0,3.365 -0.672,0 0,-3.393 c 0,-1.161 -0.354,-1.454 -0.993,-1.454 -0.639,0 -0.993,0.293 -0.993,1.454 l 0,3.393 -0.674,0 0,-3.365 z m -0.529,-1.938 0,0.587 -1.945,0 0,4.716 -0.676,0 0,-5.303 2.621,0 z m -5.372,0.456 c -0.64,0 -0.978,0.293 -0.978,1.454 l 0,1.792 c 0,1.109 0.765,1.145 0.978,1.145 0.212,0 0.976,-0.036 0.976,-1.145 l 0,-1.792 c 0,-1.161 -0.338,-1.454 -0.976,-1.454 m 0,-0.567 c 1.124,0 1.666,0.581 1.666,2.049 l 0,1.741 c 0,1.058 -0.542,1.732 -1.666,1.732 -1.124,0 -1.667,-0.674 -1.667,-1.732 l 0,-1.741 c 0,-1.468 0.543,-2.049 1.667,-2.049 M -30.492,0 c -0.016,-0.506 -0.016,-1.703 1.548,-1.689 0.874,0 1.645,0.361 1.645,1.476 0,1.683 -2.38,1.513 -2.38,2.681 0,0.574 0.412,0.78 0.816,0.78 0.639,0 0.823,-0.382 0.814,-0.963 l 0.705,0 c 0.045,1.08 -0.497,1.548 -1.466,1.548 -0.89,0 -1.558,-0.497 -1.558,-1.438 0,-1.594 2.379,-1.463 2.379,-2.636 0,-0.633 -0.411,-0.86 -0.947,-0.86 -0.434,0 -0.889,0.227 -0.889,0.947 l 0,0.154 -0.667,0 z m -2.725,2.306 c 0.042,1.11 -0.5,1.527 -1.645,1.527 -1.125,0 -1.667,-0.674 -1.667,-1.732 l 0,-1.741 c 0,-1.468 0.542,-2.049 1.667,-2.049 0.682,0 1.189,0.162 1.622,0.396 l 0,2.579 -1.652,0 0,-0.586 0.978,0 0,-1.588 c -0.141,-0.103 -0.465,-0.234 -0.948,-0.234 -0.641,0 -0.978,0.293 -0.978,1.454 l 0,1.792 c 0,1.109 0.765,1.145 0.978,1.145 0.682,0 0.94,-0.338 0.94,-0.963 l 0.705,0 z m -4.928,1.419 0,-4.54 -0.014,0 -2.065,4.54 -0.953,0 0,-5.303 0.6,0 0,4.596 0.016,0 2.092,-4.596 0.925,0 0,5.303 -0.601,0 z m -4.203,0 -0.676,0 0,-5.304 0.676,0 0,5.304 z m -1.83,-1.419 c 0.044,1.11 -0.498,1.527 -1.644,1.527 -1.124,0 -1.667,-0.674 -1.667,-1.732 l 0,-1.741 c 0,-1.468 0.543,-2.049 1.667,-2.049 0.683,0 1.19,0.162 1.623,0.396 l 0,2.579 -1.652,0 0,-0.586 0.977,0 0,-1.588 c -0.139,-0.103 -0.463,-0.234 -0.948,-0.234 -0.639,0 -0.977,0.293 -0.977,1.454 l 0,1.792 c 0,1.109 0.764,1.145 0.977,1.145 0.683,0 0.94,-0.338 0.94,-0.963 l 0.704,0 z m -5.085,-2.033 -1.697,0 0.83,2.827 0.015,0 0.852,-2.827 z m -2.945,-1.851 0.683,0 0.397,1.264 2.048,0 0.382,-1.264 0.756,0 -1.724,5.303 -0.86,0 -1.682,-5.303 z m -3.149,0 0,2.769 0.022,0 1.858,-2.769 0.867,0 -2.034,2.908 1.924,2.395 -0.764,0 -1.851,-2.329 -0.022,0 0,2.329 -0.675,0 0,-5.303 0.675,0 z m -1.855,3.842 c 0.066,1.028 -0.338,1.569 -1.387,1.569 -1.044,0 -1.703,-0.424 -1.703,-1.922 l 0,-1.499 c 0,-2.056 1.012,-2.101 1.673,-2.101 0.345,0 1.528,0 1.498,1.675 l -0.697,0 c -0.008,-1.035 -0.633,-1.108 -0.837,-1.108 -0.522,0 -0.948,0.153 -0.948,1.454 l 0,1.417 c 0,0.911 0.131,1.042 0.155,1.101 0.021,0.074 0.241,0.412 0.799,0.412 0.14,0 0.456,-0.059 0.595,-0.228 0.141,-0.168 0.163,-0.47 0.156,-0.77 l 0.696,0 z m -5.015,-1.991 -1.697,0 0.83,2.827 0.014,0 0.853,-2.827 z m -2.945,-1.851 0.682,0 0.397,1.264 2.049,0 0.381,-1.264 0.756,0 -1.725,5.303 -0.859,0 -1.681,-5.303 z m -2.397,0 0,2.336 0.889,0 c 0.544,0 1.483,0.249 1.483,1.453 0,1.248 -0.763,1.514 -1.475,1.514 l -1.572,0 0,-5.303 0.675,0 z m 0,4.715 0.934,0 c 0.146,0 0.749,-0.081 0.749,-0.889 0,-0.829 -0.661,-0.904 -0.941,-0.904 l -0.742,0 0,1.793 z m -3.444,-0.873 c 0.066,1.028 -0.337,1.569 -1.388,1.569 -1.043,0 -1.702,-0.424 -1.702,-1.922 l 0,-1.499 c 0,-2.056 1.011,-2.101 1.673,-2.101 0.345,0 1.527,0 1.498,1.675 l -0.697,0 c -0.007,-1.035 -0.632,-1.108 -0.838,-1.108 -0.522,0 -0.948,0.153 -0.948,1.454 l 0,1.417 c 0,0.911 0.132,1.042 0.155,1.101 0.022,0.074 0.242,0.412 0.801,0.412 0.139,0 0.455,-0.059 0.595,-0.228 0.139,-0.168 0.162,-0.47 0.155,-0.77 l 0.696,0 z m -4.194,1.461 -0.675,0 0,-5.304 0.675,0 0,5.304 z m -4.999,0 0,-0.588 1.395,0 0,-4.715 0.674,0 0,4.715 1.396,0 0,0.588 -3.465,0 z M -83.924,0 c -0.015,-0.506 -0.015,-1.703 1.549,-1.689 0.874,0 1.644,0.361 1.644,1.476 0,1.683 -2.379,1.513 -2.379,2.681 0,0.574 0.412,0.78 0.816,0.78 0.639,0 0.822,-0.382 0.815,-0.963 l 0.704,0 c 0.044,1.08 -0.498,1.548 -1.468,1.548 -0.889,0 -1.557,-0.497 -1.557,-1.438 0,-1.594 2.38,-1.463 2.38,-2.636 0,-0.633 -0.412,-0.86 -0.947,-0.86 -0.435,0 -0.889,0.227 -0.889,0.947 l 0,0.154 -0.668,0 z m -1.924,0.273 -1.696,0 0.83,2.827 0.014,0 0.852,-2.827 z m -2.944,-1.851 0.682,0 0.397,1.264 2.049,0 0.381,-1.264 0.756,0 -1.725,5.303 -0.859,0 -1.681,-5.303 z m -0.686,0 0,0.587 -1.946,0 0,4.716 -0.675,0 0,-5.303 2.621,0 z m -5.934,0 0,2.336 0.889,0 c 0.543,0 1.483,0.249 1.483,1.453 0,1.248 -0.763,1.514 -1.476,1.514 l -1.571,0 0,-5.303 0.675,0 z m 0,4.715 0.933,0 c 0.147,0 0.749,-0.081 0.749,-0.889 0,-0.829 -0.661,-0.904 -0.94,-0.904 l -0.742,0 0,1.793 z"
             id="path3029"
             style="fill:#231f20;fill-opacity:1;fill-rule:nonzero;stroke:none" />
        </g>
      </g>
    </g>
  </g>
</svg>
