<?xml version="1.0" encoding="UTF-8" standalone="no"?>
<!DOCTYPE svg PUBLIC "-//W3C//DTD SVG 1.0//EN" "http://www.w3.org/TR/2001/REC-SVG-20010904/DTD/svg10.dtd">
<!-- Created with Inkscape (http://www.inkscape.org/) by Steadfast-->
<svg
   xmlns:svg="http://www.w3.org/2000/svg"
   xmlns="http://www.w3.org/2000/svg"
   version="1.0"
   width="900"
   height="230"
   id="svg2602">
  <defs
     id="defs2604">
    <clipPath
       id="clipPath149">
      <path
         d="M 0,841.98 L 595.2,841.98 L 595.2,0 L 0,0 L 0,841.98 z"
         id="path151" />
    </clipPath>
    <clipPath
       id="clipPath143">
      <path
         d="M 0,842 L 595,842 L 595,0 L 0,0 L 0,842 z"
         id="path145" />
    </clipPath>
    <clipPath
       id="clipPath137">
      <path
         d="M 395.249,106.568 L 579.253,106.568 L 579.253,40.764 L 395.249,40.764 L 395.249,106.568 z"
         id="path139" />
    </clipPath>
  </defs>
  <g
     id="layer1">
    <g
       transform="matrix(5.3866778,0,0,-5.3866778,-2157.5399,541.82688)"
       id="g133">
      <g
         clip-path="url(#clipPath137)"
         id="g135">
        <g
           clip-path="url(#clipPath143)"
           id="g141">
          <g
             clip-path="url(#clipPath149)"
             id="g147">
            <path
               d="M 403.36,80.652 L 404.247,85.297 C 404.374,86.099 404.416,86.691 404.416,87.113 C 404.416,88.295 403.529,88.38 403.107,88.464 C 402.854,88.506 402.389,88.633 402.389,89.435 C 402.389,89.731 402.516,89.984 402.727,90.195 C 403.445,90.955 405.894,91.589 406.865,91.884 C 408.048,92.222 408.512,92.433 409.146,92.433 C 410.201,92.433 411.088,91.884 411.088,89.858 C 411.088,88.844 410.835,87.366 410.835,87.239 L 409.568,80.399 C 409.399,79.385 409.314,78.836 409.314,78.372 C 409.314,77.992 409.357,77.738 409.526,77.443 C 409.863,76.64 410.75,76.049 411.553,76.049 C 412.313,76.092 412.904,76.514 413.115,76.683 C 414.508,77.823 415.057,79.596 415.564,81.159 C 415.902,82.552 416.282,83.904 416.535,85.297 C 416.873,86.902 417.126,88.506 417.338,90.153 C 417.338,90.195 417.464,91.673 418.098,92.053 C 418.52,92.307 418.942,92.096 419.871,92.096 C 420.462,92.096 421.011,92.138 421.687,92.138 L 422.363,92.138 C 422.405,92.138 423.123,92.222 423.503,92.096 C 424.01,91.927 424.136,91.589 424.136,91.378 C 424.136,91.251 424.052,90.913 424.01,90.787 C 423.925,90.533 423.883,90.322 423.841,90.069 L 421.814,80.019 C 421.687,79.427 421.603,79.005 421.603,78.414 C 421.603,76.936 422.236,76.007 423.629,76.007 C 424.136,76.007 424.896,76.092 425.783,76.852 C 428.063,78.794 428.992,83.101 429.035,83.566 C 429.077,83.692 429.161,84.199 429.161,84.706 C 429.119,86.859 428.317,86.902 427.514,87.704 C 427.303,87.915 426.459,88.802 426.459,90.069 C 426.459,91.293 427.514,92.433 428.697,92.433 C 429.161,92.433 429.668,92.264 430.09,91.969 C 431.146,91.251 431.737,89.773 431.737,87.071 C 431.737,86.522 431.737,85.719 431.568,84.452 C 431.357,83.101 430.555,77.781 426.628,74.656 C 424.516,72.924 422.278,72.671 421.223,72.671 C 418.478,72.671 417.042,74.191 416.62,75.163 C 416.24,75.965 416.197,77.147 416.197,77.316 C 414.804,75.5 413.664,74.149 411.595,73.262 C 411.172,73.051 410.201,72.671 408.934,72.671 C 407.583,72.671 405.81,73.22 404.838,74.022 C 403.192,75.374 403.023,77.654 403.023,78.33 C 403.023,79.09 403.192,79.892 403.36,80.652 z M 455.269,90.238 L 453.369,80.23 C 453.284,79.807 453.115,78.921 453.115,78.456 C 453.115,77.781 453.411,77.443 453.622,77.232 C 454.255,76.725 454.931,76.767 454.931,75.838 C 454.931,75.669 454.931,75.5 454.762,75.247 C 454.298,74.529 452.608,73.769 451.806,73.431 C 450.497,72.924 449.737,72.671 449.104,72.671 C 448.428,72.671 447.921,73.051 447.71,73.727 C 447.541,74.191 447.541,74.74 447.541,74.909 C 447.541,75.627 447.583,76.345 447.626,77.021 C 447.246,76.556 446.866,76.092 446.486,75.669 C 445.81,74.909 443.53,72.587 440.194,72.587 C 439.729,72.587 438.673,72.629 437.491,73.136 C 434.029,74.698 433.86,78.921 433.86,79.934 C 433.86,80.694 433.944,82.172 434.577,83.988 C 435.338,86.057 438.293,92.645 445.599,92.645 C 448.006,92.602 449.441,91.758 450.117,90.955 C 450.582,90.407 450.919,89.52 450.962,89.393 C 450.962,89.52 451.046,90.153 451.215,90.533 C 451.637,91.547 452.524,91.8 453.369,92.096 C 453.749,92.222 454.213,92.433 454.593,92.433 C 455.015,92.433 455.522,92.053 455.522,91.547 C 455.522,91.504 455.438,91.167 455.395,90.913 C 455.353,90.702 455.311,90.449 455.269,90.238 z M 439.983,80.356 C 439.898,79.596 439.898,79.047 440.025,78.33 C 440.236,76.894 441.08,75.711 442.558,75.711 C 443.867,75.711 444.712,76.598 445.008,76.852 C 446.781,78.625 447.499,81.159 447.879,83.608 C 447.921,83.735 448.175,85.297 448.175,86.31 C 448.175,86.859 448.175,89.942 445.43,89.984 C 444.923,89.942 444.459,89.815 444.036,89.604 C 442.221,88.591 440.363,85.255 439.983,80.356 z M 467.797,89.113 L 466.108,79.992 C 466.024,79.316 465.897,78.767 465.897,78.471 C 465.897,78.302 465.897,78.218 465.981,78.007 C 466.066,77.754 466.361,77.162 467.037,77.205 C 467.333,77.205 468.177,77.416 468.473,77.5 C 468.768,77.542 469.106,77.627 469.444,77.754 C 469.866,77.88 470.289,78.091 470.753,78.091 C 471.091,78.091 471.978,77.922 471.978,76.867 C 471.935,76.698 471.935,76.402 471.724,76.107 C 471.344,75.516 470.753,75.431 469.486,74.924 C 468.684,74.587 467.924,74.291 467.122,73.953 C 465.686,73.404 463.025,72.517 461.548,72.517 C 461.252,72.517 459.732,72.517 459.183,73.573 C 459.056,73.784 458.929,74.122 458.929,74.755 C 458.929,75.22 458.972,75.389 459.098,76.191 L 461.379,89.155 C 460.956,89.155 460.492,89.197 460.07,89.155 C 459.647,89.155 459.183,89.07 458.845,89.197 C 458.718,89.239 458.254,89.493 458.254,90.042 C 458.296,90.253 458.465,91.182 458.592,91.351 C 458.634,91.477 458.845,91.646 458.972,91.731 C 459.521,92.026 460.323,91.942 460.999,92.026 C 463.448,92.449 464.63,95.742 464.757,96.038 C 464.968,96.545 465.095,97.009 465.348,97.474 C 465.981,98.614 466.657,98.656 467.164,98.656 C 468.768,98.656 469.191,98.571 469.191,97.6 C 469.191,97.094 469.022,96.376 468.98,96.333 L 468.177,91.984 C 469.993,92.026 472.273,91.984 472.611,91.857 C 472.949,91.689 473.202,91.14 473.202,90.675 C 473.202,89.957 472.78,89.07 471.26,89.07 C 470.711,89.07 470.162,89.155 469.613,89.197 C 469.022,89.197 468.431,89.155 467.797,89.113 z M 483.638,89.113 L 481.949,79.992 C 481.864,79.316 481.738,78.767 481.738,78.471 C 481.738,78.302 481.738,78.218 481.822,78.007 C 481.907,77.754 482.202,77.162 482.878,77.205 C 483.173,77.205 484.018,77.416 484.314,77.5 C 484.609,77.542 484.947,77.627 485.285,77.754 C 485.707,77.88 486.129,78.091 486.594,78.091 C 486.932,78.091 487.818,77.922 487.818,76.867 C 487.776,76.698 487.776,76.402 487.565,76.107 C 487.185,75.516 486.594,75.431 485.327,74.924 C 484.525,74.587 483.765,74.291 482.962,73.953 C 481.527,73.404 478.866,72.517 477.388,72.517 C 477.093,72.517 475.573,72.517 475.024,73.573 C 474.897,73.784 474.77,74.122 474.77,74.755 C 474.77,75.22 474.812,75.389 474.939,76.191 L 477.219,89.155 C 476.797,89.155 476.333,89.197 475.91,89.155 C 475.488,89.155 475.024,89.07 474.686,89.197 C 474.559,89.239 474.095,89.493 474.095,90.042 C 474.137,90.253 474.306,91.182 474.432,91.351 C 474.475,91.477 474.686,91.646 474.812,91.731 C 475.361,92.026 476.164,91.942 476.839,92.026 C 479.289,92.449 480.471,95.742 480.598,96.038 C 480.809,96.545 480.935,97.009 481.189,97.474 C 481.822,98.614 482.498,98.656 483.005,98.656 C 484.609,98.656 485.031,98.571 485.031,97.6 C 485.031,97.094 484.863,96.376 484.82,96.333 L 484.018,91.984 C 485.834,92.026 488.114,91.984 488.452,91.857 C 488.79,91.689 489.043,91.14 489.043,90.675 C 489.043,89.957 488.621,89.07 487.101,89.07 C 486.552,89.07 486.003,89.155 485.454,89.197 C 484.863,89.197 484.271,89.155 483.638,89.113"
               id="path153"
               style="fill:#ef403d;fill-opacity:1;fill-rule:nonzero;stroke:none" />
            <path
               d="M 403.36,80.652 C 403.192,79.892 403.023,79.09 403.023,78.33 C 403.023,77.654 403.192,75.374 404.838,74.022 C 405.81,73.22 407.583,72.671 408.934,72.671 C 410.201,72.671 411.172,73.051 411.595,73.262 C 413.664,74.149 414.804,75.5 416.197,77.316 C 416.197,77.147 416.24,75.965 416.62,75.163 C 417.042,74.191 418.478,72.671 421.223,72.671 C 422.278,72.671 424.516,72.924 426.628,74.656 C 430.555,77.781 431.357,83.101 431.568,84.452 C 431.737,85.719 431.737,86.522 431.737,87.071 C 431.737,89.773 431.146,91.251 430.09,91.969 C 429.668,92.264 429.161,92.433 428.697,92.433 C 427.514,92.433 426.459,91.293 426.459,90.069 C 426.459,88.802 427.303,87.915 427.514,87.704 C 428.317,86.902 429.119,86.859 429.161,84.706 C 429.161,84.199 429.077,83.692 429.035,83.566 C 428.992,83.101 428.063,78.794 425.783,76.852 C 424.896,76.092 424.136,76.007 423.629,76.007 C 422.236,76.007 421.603,76.936 421.603,78.414 C 421.603,79.005 421.687,79.427 421.814,80.019 L 423.841,90.069 C 423.883,90.322 423.925,90.533 424.01,90.787 C 424.052,90.913 424.136,91.251 424.136,91.378 C 424.136,91.589 424.01,91.927 423.503,92.096 C 423.123,92.222 422.405,92.138 422.363,92.138 L 421.687,92.138 C 421.011,92.138 420.462,92.096 419.871,92.096 C 418.942,92.096 418.52,92.307 418.098,92.053 C 417.464,91.673 417.338,90.195 417.338,90.153 C 417.126,88.506 416.873,86.902 416.535,85.297 C 416.282,83.904 415.902,82.552 415.564,81.159 C 415.057,79.596 414.508,77.823 413.115,76.683 C 412.904,76.514 412.313,76.092 411.553,76.049 C 410.75,76.049 409.863,76.64 409.526,77.443 C 409.357,77.738 409.314,77.992 409.314,78.372 C 409.314,78.836 409.399,79.385 409.568,80.399 L 410.835,87.239 C 410.835,87.366 411.088,88.844 411.088,89.858 C 411.088,91.884 410.201,92.433 409.146,92.433 C 408.512,92.433 408.048,92.222 406.865,91.884 C 405.894,91.589 403.445,90.955 402.727,90.195 C 402.516,89.984 402.389,89.731 402.389,89.435 C 402.389,88.633 402.854,88.506 403.107,88.464 C 403.529,88.38 404.416,88.295 404.416,87.113 C 404.416,86.691 404.374,86.099 404.247,85.297 L 403.36,80.652"
               id="path155"
               style="fill:#ef403d;fill-opacity:1;fill-rule:nonzero;stroke:none" />
            <path
               d="M 455.269,90.238 C 455.311,90.449 455.353,90.702 455.395,90.913 C 455.438,91.167 455.522,91.504 455.522,91.547 C 455.522,92.053 455.015,92.433 454.593,92.433 C 454.213,92.433 453.749,92.222 453.369,92.096 C 452.524,91.8 451.637,91.547 451.215,90.533 C 451.046,90.153 450.962,89.52 450.962,89.393 C 450.919,89.52 450.582,90.407 450.117,90.955 C 449.441,91.758 448.006,92.602 445.599,92.645 C 438.293,92.645 435.338,86.057 434.577,83.988 C 433.944,82.172 433.86,80.694 433.86,79.934 C 433.86,78.921 434.029,74.698 437.491,73.136 C 438.673,72.629 439.729,72.587 440.194,72.587 C 443.53,72.587 445.81,74.909 446.486,75.669 C 446.866,76.092 447.246,76.556 447.626,77.021 C 447.583,76.345 447.541,75.627 447.541,74.909 C 447.541,74.74 447.541,74.191 447.71,73.727 C 447.921,73.051 448.428,72.671 449.104,72.671 C 449.737,72.671 450.497,72.924 451.806,73.431 C 452.608,73.769 454.298,74.529 454.762,75.247 C 454.931,75.5 454.931,75.669 454.931,75.838 C 454.931,76.767 454.255,76.725 453.622,77.232 C 453.411,77.443 453.115,77.781 453.115,78.456 C 453.115,78.921 453.284,79.807 453.369,80.23 L 455.269,90.238 z M 439.983,80.356 C 440.363,85.255 442.221,88.591 444.036,89.604 C 444.459,89.815 444.923,89.942 445.43,89.984 C 448.175,89.942 448.175,86.859 448.175,86.31 C 448.175,85.297 447.921,83.735 447.879,83.608 C 447.499,81.159 446.781,78.625 445.008,76.852 C 444.712,76.598 443.867,75.711 442.558,75.711 C 441.08,75.711 440.236,76.894 440.025,78.33 C 439.898,79.047 439.898,79.596 439.983,80.356"
               id="path157"
               style="fill:#ef403d;fill-opacity:1;fill-rule:evenodd;stroke:none" />
            <path
               d="M 467.797,89.113 C 468.431,89.155 469.022,89.197 469.613,89.197 C 470.162,89.155 470.711,89.07 471.26,89.07 C 472.78,89.07 473.202,89.957 473.202,90.675 C 473.202,91.14 472.949,91.689 472.611,91.857 C 472.273,91.984 469.993,92.026 468.177,91.984 L 468.98,96.333 C 469.022,96.376 469.191,97.094 469.191,97.6 C 469.191,98.571 468.768,98.656 467.164,98.656 C 466.657,98.656 465.981,98.614 465.348,97.474 C 465.095,97.009 464.968,96.545 464.757,96.038 C 464.63,95.742 463.448,92.449 460.999,92.026 C 460.323,91.942 459.521,92.026 458.972,91.731 C 458.845,91.646 458.634,91.477 458.592,91.351 C 458.465,91.182 458.296,90.253 458.254,90.042 C 458.254,89.493 458.718,89.239 458.845,89.197 C 459.183,89.07 459.647,89.155 460.07,89.155 C 460.492,89.197 460.956,89.155 461.379,89.155 L 459.098,76.191 C 458.972,75.389 458.929,75.22 458.929,74.755 C 458.929,74.122 459.056,73.784 459.183,73.573 C 459.732,72.517 461.252,72.517 461.548,72.517 C 463.025,72.517 465.686,73.404 467.122,73.953 C 467.924,74.291 468.684,74.587 469.486,74.924 C 470.753,75.431 471.344,75.516 471.724,76.107 C 471.935,76.402 471.935,76.698 471.978,76.867 C 471.978,77.922 471.091,78.091 470.753,78.091 C 470.289,78.091 469.866,77.88 469.444,77.754 C 469.106,77.627 468.768,77.542 468.473,77.5 C 468.177,77.416 467.333,77.205 467.037,77.205 C 466.361,77.162 466.066,77.754 465.981,78.007 C 465.897,78.218 465.897,78.302 465.897,78.471 C 465.897,78.767 466.024,79.316 466.108,79.992 L 467.797,89.113"
               id="path159"
               style="fill:#ef403d;fill-opacity:1;fill-rule:nonzero;stroke:none" />
            <path
               d="M 483.638,89.113 C 484.271,89.155 484.863,89.197 485.454,89.197 C 486.003,89.155 486.552,89.07 487.101,89.07 C 488.621,89.07 489.043,89.957 489.043,90.675 C 489.043,91.14 488.79,91.689 488.452,91.857 C 488.114,91.984 485.834,92.026 484.018,91.984 L 484.82,96.333 C 484.863,96.376 485.031,97.094 485.031,97.6 C 485.031,98.571 484.609,98.656 483.005,98.656 C 482.498,98.656 481.822,98.614 481.189,97.474 C 480.935,97.009 480.809,96.545 480.598,96.038 C 480.471,95.742 479.289,92.449 476.839,92.026 C 476.164,91.942 475.361,92.026 474.812,91.731 C 474.686,91.646 474.475,91.477 474.432,91.351 C 474.306,91.182 474.137,90.253 474.095,90.042 C 474.095,89.493 474.559,89.239 474.686,89.197 C 475.024,89.07 475.488,89.155 475.91,89.155 C 476.333,89.197 476.797,89.155 477.219,89.155 L 474.939,76.191 C 474.812,75.389 474.77,75.22 474.77,74.755 C 474.77,74.122 474.897,73.784 475.024,73.573 C 475.573,72.517 477.093,72.517 477.388,72.517 C 478.866,72.517 481.527,73.404 482.962,73.953 C 483.765,74.291 484.525,74.587 485.327,74.924 C 486.594,75.431 487.185,75.516 487.565,76.107 C 487.776,76.402 487.776,76.698 487.818,76.867 C 487.818,77.922 486.932,78.091 486.594,78.091 C 486.129,78.091 485.707,77.88 485.285,77.754 C 484.947,77.627 484.609,77.542 484.314,77.5 C 484.018,77.416 483.173,77.205 482.878,77.205 C 482.202,77.162 481.907,77.754 481.822,78.007 C 481.738,78.218 481.738,78.302 481.738,78.471 C 481.738,78.767 481.864,79.316 481.949,79.992 L 483.638,89.113"
               id="path161"
               style="fill:#ef403d;fill-opacity:1;fill-rule:nonzero;stroke:none" />
            <path
               d="M 433.759,63.554 L 430.256,63.554 L 430.256,65.279 L 433.527,65.279 L 433.527,66.594 L 430.256,66.594 L 430.256,68.098 L 433.685,68.098 L 433.685,69.414 L 428.467,69.414 L 428.467,62.239 L 433.759,62.239 L 433.759,63.554"
               id="path163"
               style="fill:#231f20;fill-opacity:1;fill-rule:nonzero;stroke:none" />
            <path
               d="M 437.006,67.089 L 435.481,67.089 L 435.481,62.239 L 437.006,62.239 L 437.006,65.363 C 437.406,65.963 437.69,66.163 438.069,66.163 C 438.5,66.163 438.826,65.879 438.826,65.195 L 438.826,62.239 L 440.351,62.239 L 440.351,65.321 C 440.351,66.752 439.341,67.183 438.584,67.183 C 437.963,67.183 437.49,66.952 437.006,66.394 L 437.006,67.089"
               id="path165"
               style="fill:#231f20;fill-opacity:1;fill-rule:evenodd;stroke:none" />
            <path
               d="M 446.87,63.743 C 446.154,63.228 445.681,63.049 445.071,63.049 C 444.113,63.049 443.524,63.554 443.472,64.416 L 446.954,64.416 C 447.027,66.184 445.86,67.183 444.45,67.183 C 442.956,67.183 441.894,66.131 441.894,64.648 C 441.894,63.133 442.998,62.144 444.703,62.144 C 445.081,62.144 445.996,62.144 446.87,62.786 L 446.87,63.743 z M 443.503,65.216 C 443.566,65.889 443.956,66.279 444.555,66.279 C 445.144,66.279 445.544,65.879 445.607,65.216 L 443.503,65.216"
               id="path167"
               style="fill:#231f20;fill-opacity:1;fill-rule:evenodd;stroke:none" />
            <path
               d="M 450.033,67.089 L 448.507,67.089 L 448.507,62.239 L 450.033,62.239 L 450.033,64.332 C 450.369,65.226 450.727,65.752 451.285,65.752 C 451.527,65.752 451.79,65.647 452.189,65.395 L 452.61,66.741 C 452.168,67.068 451.905,67.183 451.6,67.183 C 451.011,67.183 450.506,66.71 450.054,65.7 L 450.033,65.7 L 450.033,67.089"
               id="path169"
               style="fill:#231f20;fill-opacity:1;fill-rule:nonzero;stroke:none" />
            <path
               d="M 458.647,67.089 L 455.764,67.089 C 454.018,67.089 453.597,65.921 453.597,65.321 C 453.597,64.427 454.334,63.922 454.954,63.827 L 454.954,63.806 C 454.67,63.743 454.071,63.606 454.071,63.091 C 454.071,62.744 454.334,62.554 454.66,62.46 L 454.66,62.439 C 453.587,62.165 453.366,61.639 453.366,61.229 C 453.366,60.587 453.913,59.819 455.954,59.819 C 457.521,59.819 458.521,60.324 458.521,61.45 C 458.521,61.692 458.447,62.07 458.132,62.386 C 457.332,63.196 455.48,62.712 455.48,63.27 C 455.48,63.838 456.89,63.333 457.753,64.195 C 458.016,64.459 458.195,64.827 458.195,65.258 C 458.195,65.542 458.121,65.774 457.953,66.068 L 458.647,66.068 L 458.647,67.089 z M 455.018,65.3 C 455.018,65.795 455.396,66.184 455.901,66.184 C 456.427,66.184 456.774,65.795 456.774,65.353 C 456.774,64.848 456.385,64.427 455.901,64.427 C 455.417,64.427 455.018,64.827 455.018,65.3 z M 457.122,61.334 C 457.122,61.008 456.701,60.724 456.027,60.724 C 455.217,60.724 454.776,60.924 454.776,61.292 C 454.776,61.65 455.217,61.871 455.933,61.871 C 456.69,61.871 457.122,61.681 457.122,61.334"
               id="path171"
               style="fill:#231f20;fill-opacity:1;fill-rule:evenodd;stroke:none" />
            <path
               d="M 461.486,67.089 L 459.9605,67.089 L 459.9605,62.2392 L 461.486,62.2392 L 461.486,67.089 z M 460.718,69.508 C 460.256,69.508 459.877,69.129 459.877,68.667 C 459.877,68.204 460.256,67.825 460.718,67.825 C 461.181,67.825 461.56,68.204 461.56,68.667 C 461.56,69.129 461.181,69.508 460.718,69.508"
               id="path173"
               style="fill:#231f20;fill-opacity:1;fill-rule:evenodd;stroke:none" />
            <path
               d="M 468.038,63.743 C 467.323,63.228 466.849,63.049 466.239,63.049 C 465.282,63.049 464.693,63.554 464.64,64.416 L 468.122,64.416 C 468.196,66.184 467.028,67.183 465.619,67.183 C 464.125,67.183 463.062,66.131 463.062,64.648 C 463.062,63.133 464.167,62.144 465.871,62.144 C 466.25,62.144 467.165,62.144 468.038,62.786 L 468.038,63.743 z M 464.672,65.216 C 464.735,65.889 465.124,66.279 465.724,66.279 C 466.313,66.279 466.713,65.879 466.776,65.216 L 464.672,65.216"
               id="path175"
               style="fill:#231f20;fill-opacity:1;fill-rule:evenodd;stroke:none" />
            <path
               d="M 474.827,67.089 L 474.827,67.394 C 474.827,68.035 475.195,68.246 475.668,68.246 C 475.837,68.246 475.952,68.235 476.352,68.183 L 476.352,69.414 C 476.121,69.445 475.721,69.508 475.427,69.508 C 474.196,69.508 473.301,68.761 473.301,67.331 L 473.301,67.089 L 472.607,67.089 L 472.607,66.047 L 473.301,66.047 L 473.301,62.239 L 474.827,62.239 L 474.827,66.047 L 475.521,66.047 L 475.521,67.089 L 474.827,67.089"
               id="path177"
               style="fill:#231f20;fill-opacity:1;fill-rule:nonzero;stroke:none" />
            <path
               d="M 478.148,69.172 C 477.769,69.172 477.464,68.866 477.464,68.488 C 477.464,68.109 477.769,67.804 478.148,67.804 C 478.527,67.804 478.832,68.109 478.832,68.488 C 478.832,68.866 478.527,69.172 478.148,69.172 z M 480.284,69.172 C 479.905,69.172 479.6,68.866 479.6,68.488 C 479.6,68.109 479.905,67.804 480.284,67.804 C 480.662,67.804 480.967,68.109 480.967,68.488 C 480.967,68.866 480.662,69.172 480.284,69.172 z M 480.126,62.239 L 481.651,62.239 L 481.651,67.089 L 480.115,67.089 L 480.115,63.996 C 479.958,63.522 479.537,63.165 479.074,63.165 C 478.674,63.165 478.306,63.407 478.306,64.09 L 478.306,67.089 L 476.78,67.089 L 476.78,63.985 C 476.78,62.733 477.601,62.144 478.558,62.144 C 479.169,62.144 479.642,62.376 480.126,62.933 L 480.126,62.239"
               id="path179"
               style="fill:#231f20;fill-opacity:1;fill-rule:evenodd;stroke:none" />
            <path
               d="M 485.003,67.089 L 483.478,67.089 L 483.478,62.239 L 485.003,62.239 L 485.003,64.332 C 485.34,65.226 485.697,65.752 486.255,65.752 C 486.497,65.752 486.76,65.647 487.16,65.395 L 487.58,66.741 C 487.139,67.068 486.876,67.183 486.57,67.183 C 485.981,67.183 485.476,66.71 485.024,65.7 L 485.003,65.7 L 485.003,67.089"
               id="path181"
               style="fill:#231f20;fill-opacity:1;fill-rule:nonzero;stroke:none" />
            <path
               d="M 497.611,69.414 L 497.611,65.416 C 497.611,64.132 496.738,63.638 495.791,63.638 C 494.76,63.638 494.013,64.259 494.013,65.29 L 494.013,69.414 L 492.225,69.414 L 492.225,65.332 C 492.225,63.112 493.729,62.144 495.812,62.144 C 497.779,62.144 499.399,62.965 499.399,65.342 L 499.399,69.414 L 497.611,69.414"
               id="path183"
               style="fill:#231f20;fill-opacity:1;fill-rule:nonzero;stroke:none" />
            <path
               d="M 502.827,67.089 L 501.301,67.089 L 501.301,62.239 L 502.827,62.239 L 502.827,65.363 C 503.227,65.963 503.511,66.163 503.889,66.163 C 504.321,66.163 504.647,65.879 504.647,65.195 L 504.647,62.239 L 506.172,62.239 L 506.172,65.321 C 506.172,66.752 505.162,67.183 504.405,67.183 C 503.784,67.183 503.311,66.952 502.827,66.394 L 502.827,67.089"
               id="path185"
               style="fill:#231f20;fill-opacity:1;fill-rule:evenodd;stroke:none" />
            <path
               d="M 511.439,67.089 L 509.671,67.089 L 509.671,68.614 L 509.482,68.614 L 507.451,66.342 L 507.451,66.047 L 508.146,66.047 L 508.146,63.964 C 508.146,62.607 509.019,62.144 510.029,62.144 C 510.502,62.144 510.902,62.228 511.439,62.449 L 511.439,63.554 C 511.028,63.343 510.734,63.27 510.418,63.27 C 509.945,63.27 509.671,63.575 509.671,64.048 L 509.671,66.047 L 511.439,66.047 L 511.439,67.089"
               id="path187"
               style="fill:#231f20;fill-opacity:1;fill-rule:nonzero;stroke:none" />
            <path
               d="M 517.483,63.743 C 516.767,63.228 516.294,63.049 515.684,63.049 C 514.726,63.049 514.137,63.554 514.085,64.416 L 517.567,64.416 C 517.64,66.184 516.473,67.183 515.063,67.183 C 513.569,67.183 512.507,66.131 512.507,64.648 C 512.507,63.133 513.611,62.144 515.316,62.144 C 515.694,62.144 516.61,62.144 517.483,62.786 L 517.483,63.743 z M 514.116,65.216 C 514.179,65.889 514.569,66.279 515.168,66.279 C 515.757,66.279 516.157,65.879 516.22,65.216 L 514.116,65.216"
               id="path189"
               style="fill:#231f20;fill-opacity:1;fill-rule:evenodd;stroke:none" />
            <path
               d="M 520.646,67.089 L 519.12,67.089 L 519.12,62.239 L 520.646,62.239 L 520.646,64.332 C 520.982,65.226 521.34,65.752 521.898,65.752 C 522.14,65.752 522.403,65.647 522.802,65.395 L 523.223,66.741 C 522.781,67.068 522.518,67.183 522.213,67.183 C 521.624,67.183 521.119,66.71 520.667,65.7 L 520.646,65.7 L 520.646,67.089"
               id="path191"
               style="fill:#231f20;fill-opacity:1;fill-rule:nonzero;stroke:none" />
            <path
               d="M 525.841,67.089 L 524.316,67.089 L 524.316,62.239 L 525.841,62.239 L 525.841,65.363 C 526.241,65.963 526.525,66.163 526.904,66.163 C 527.335,66.163 527.661,65.879 527.661,65.195 L 527.661,62.239 L 529.186,62.239 L 529.186,65.321 C 529.186,66.752 528.177,67.183 527.419,67.183 C 526.798,67.183 526.325,66.952 525.841,66.394 L 525.841,67.089"
               id="path193"
               style="fill:#231f20;fill-opacity:1;fill-rule:evenodd;stroke:none" />
            <path
               d="M 535.705,63.743 C 534.989,63.228 534.516,63.049 533.906,63.049 C 532.948,63.049 532.359,63.554 532.307,64.416 L 535.789,64.416 C 535.862,66.184 534.695,67.183 533.285,67.183 C 531.791,67.183 530.729,66.131 530.729,64.648 C 530.729,63.133 531.833,62.144 533.538,62.144 C 533.916,62.144 534.831,62.144 535.705,62.786 L 535.705,63.743 z M 532.338,65.216 C 532.401,65.889 532.791,66.279 533.39,66.279 C 533.979,66.279 534.379,65.879 534.442,65.216 L 532.338,65.216"
               id="path195"
               style="fill:#231f20;fill-opacity:1;fill-rule:evenodd;stroke:none" />
            <path
               d="M 538.847,69.414 L 537.321,69.414 L 537.321,62.239 L 538.847,62.239 L 538.847,65.332 C 539.204,65.847 539.509,66.068 539.867,66.068 C 540.341,66.068 540.656,65.731 540.656,65.006 L 540.656,62.239 L 542.182,62.239 L 542.182,65.332 C 542.182,66.647 541.287,67.183 540.404,67.183 C 539.804,67.183 539.31,66.931 538.868,66.373 L 538.847,66.373 L 538.847,69.414"
               id="path197"
               style="fill:#231f20;fill-opacity:1;fill-rule:nonzero;stroke:none" />
            <path
               d="M 545.512,67.089 L 543.987,67.089 L 543.987,62.239 L 545.512,62.239 L 545.512,65.489 C 545.88,65.931 546.28,66.163 546.68,66.163 C 547.132,66.163 547.606,65.9 547.606,65.111 L 547.606,62.239 L 549.131,62.239 L 549.131,65.342 C 549.478,65.879 549.889,66.163 550.33,66.163 C 550.888,66.163 551.225,65.774 551.225,65.079 L 551.225,62.239 L 552.75,62.239 L 552.75,65.353 C 552.75,66.457 551.961,67.183 550.856,67.183 C 550.13,67.183 549.573,66.878 548.942,66.152 C 548.605,66.847 548.037,67.183 547.195,67.183 C 546.89,67.183 546.606,67.131 546.322,67.015 C 546.049,66.889 545.775,66.71 545.512,66.468 L 545.512,67.089"
               id="path199"
               style="fill:#231f20;fill-opacity:1;fill-rule:evenodd;stroke:none" />
            <path
               d="M 559.289,63.743 C 558.573,63.228 558.1,63.049 557.49,63.049 C 556.532,63.049 555.943,63.554 555.891,64.416 L 559.373,64.416 C 559.446,66.184 558.279,67.183 556.869,67.183 C 555.375,67.183 554.313,66.131 554.313,64.648 C 554.313,63.133 555.417,62.144 557.122,62.144 C 557.5,62.144 558.416,62.144 559.289,62.786 L 559.289,63.743 z M 555.922,65.216 C 555.985,65.889 556.375,66.279 556.974,66.279 C 557.563,66.279 557.963,65.879 558.026,65.216 L 555.922,65.216"
               id="path201"
               style="fill:#231f20;fill-opacity:1;fill-rule:evenodd;stroke:none" />
            <path
               d="M 562.41,67.089 L 560.884,67.089 L 560.884,62.239 L 562.41,62.239 L 562.41,65.363 C 562.809,65.963 563.093,66.163 563.472,66.163 C 563.904,66.163 564.23,65.879 564.23,65.195 L 564.23,62.239 L 565.755,62.239 L 565.755,65.321 C 565.755,66.752 564.745,67.183 563.988,67.183 C 563.367,67.183 562.894,66.952 562.41,66.394 L 562.41,67.089"
               id="path203"
               style="fill:#231f20;fill-opacity:1;fill-rule:evenodd;stroke:none" />
          </g>
        </g>
      </g>
    </g>
  </g>
</svg>
